<?xml version="1.0" encoding="UTF-8"?>
<svg width="42px" height="23px" viewBox="0 0 42 23" version="1.1" xmlns="http://www.w3.org/2000/svg" xmlns:xlink="http://www.w3.org/1999/xlink">
    <!-- Generator: Sketch 60.1 (88133) - https://sketch.com -->
    <title>crown</title>
    <desc>Created with Sketch.</desc>
    <g id="crown" stroke="none" stroke-width="1" fill="none" fill-rule="evenodd">
        <path d="M8.33231298,17.8135536 L3.34384785,7.44051366 C3.10449034,6.94279242 3.31393552,6.34527204 3.81165675,6.10591453 C4.07624402,5.97867273 4.38338033,5.97413155 4.65161379,6.09349532 L14.0115702,10.2586716 C14.3918315,10.4278878 14.8371449,10.3438782 15.1296177,10.0477491 L21.4033817,3.69555271 C21.7905953,3.30349822 22.4219987,3.29856642 22.8152893,3.6845245 L29.3129984,10.0610898 C29.6071847,10.3497912 30.0483706,10.4284125 30.4241759,10.2591064 L39.7954891,6.03718526 C40.2990323,5.8103313 40.8911362,6.03463222 41.1179901,6.53817538 C41.2326568,6.7926987 41.2357123,7.08356647 41.1264178,7.34044243 L36.6881806,17.7716701 C36.5311925,18.1406407 36.168987,18.3801585 35.7680075,18.3801585 L9.233517,18.3801585 C8.84919451,18.3801585 8.49887646,18.1599066 8.33231298,17.8135536 Z" id="Path" stroke="#FFFFFF" stroke-width="4" fill="#FFFFFF" transform="translate(22.145825, 10.683249) rotate(-12.000000) translate(-22.145825, -10.683249) "></path>
    </g>
</svg>