<svg width="346" height="230" viewBox="0 0 346 230" fill="none" xmlns="http://www.w3.org/2000/svg">
<rect x="24.4561" y="24.8859" width="297.089" height="180.101" rx="8.5" fill="#E0D4BE" stroke="#AF9A87" stroke-width="3"/>
<path d="M36.6572 135.787H309.342V182.862C309.342 188.385 304.865 192.862 299.342 192.862H46.6572C41.1344 192.862 36.6572 188.385 36.6572 182.862V135.787Z" fill="white"/>
<line x1="41.9531" y1="126.702" x2="226.5" y2="126.702" stroke="#AF9A87" stroke-width="3"/>
<rect x="236.058" y="37.6296" width="73.2847" height="87.9416" fill="#EDE1CC"/>
<path d="M303.281 120.254H242.119L248.915 112.581C252.203 108.269 258.736 98.3752 258.56 93.2892C258.385 88.2033 253.372 79.7705 250.888 76.1898C247.161 67.2747 244.311 48.3045 262.726 43.7447C281.14 39.1849 290.275 55.2904 292.54 63.9132H296.486C297.582 64.5708 298.722 66.5877 300.651 69.3938C302.58 72.1998 301.455 74.2168 300.651 74.8745C298.751 75.0937 294.951 75.6637 294.951 76.1898V81.8895C294.951 83.6433 296.486 87.3702 294.951 89.7817C293.724 91.7108 292.832 92.9239 292.54 93.2892L287.936 95.2622C287.644 96.2852 287.235 98.5944 287.936 99.6466C288.813 100.962 293.417 104.031 296.486 107.1C298.941 109.556 302.039 116.892 303.281 120.254Z" fill="#C4BAA9"/>
<g filter="url(#filter0_di)">
<path fill-rule="evenodd" clip-rule="evenodd" d="M173 69.8753C182.449 69.8753 190.109 62.2153 190.109 52.7662C190.109 43.3171 182.449 35.6571 173 35.6571C163.551 35.6571 155.891 43.3171 155.891 52.7662C155.891 62.2153 163.551 69.8753 173 69.8753ZM172.999 62.9715C178.636 62.9715 183.205 58.4024 183.205 52.7662C183.205 47.1299 178.636 42.5608 172.999 42.5608C167.363 42.5608 162.794 47.1299 162.794 52.7662C162.794 58.4024 167.363 62.9715 172.999 62.9715Z" fill="#E0D4BE"/>
</g>
<path fill-rule="evenodd" clip-rule="evenodd" d="M173 77.7889C186.82 77.7889 198.023 66.5859 198.023 52.7662C198.023 38.9465 186.82 27.7434 173 27.7434C159.181 27.7434 147.978 38.9465 147.978 52.7662C147.978 66.5859 159.181 77.7889 173 77.7889ZM173 69.8508C182.435 69.8508 190.084 62.2017 190.084 52.7661C190.084 43.3305 182.435 35.6814 173 35.6814C163.564 35.6814 155.915 43.3305 155.915 52.7661C155.915 62.2017 163.564 69.8508 173 69.8508Z" fill="#E0D4BE"/>
<circle cx="173.119" cy="52.647" r="10.0859" fill="#EAD9BF"/>
<path fill-rule="evenodd" clip-rule="evenodd" d="M25.7842 0.843262C11.9771 0.843262 0.78418 12.0361 0.78418 25.8433V204.029C0.78418 217.836 11.9771 229.029 25.7842 229.029H320.215C334.022 229.029 345.215 217.836 345.215 204.029V25.8433C345.215 12.0361 334.022 0.843262 320.215 0.843262H25.7842ZM32.9556 23.3859C27.4327 23.3859 22.9556 27.863 22.9556 33.3859V196.487C22.9556 202.01 27.4327 206.487 32.9556 206.487H313.045C318.567 206.487 323.045 202.01 323.045 196.487V33.3859C323.045 27.863 318.567 23.3859 313.045 23.3859H32.9556Z" fill="#E0D4BE"/>
<defs>
<filter id="filter0_di" x="151.891" y="33.6571" width="42.2181" height="42.2181" filterUnits="userSpaceOnUse" color-interpolation-filters="sRGB">
<feFlood flood-opacity="0" result="BackgroundImageFix"/>
<feColorMatrix in="SourceAlpha" type="matrix" values="0 0 0 0 0 0 0 0 0 0 0 0 0 0 0 0 0 0 127 0"/>
<feOffset dy="2"/>
<feGaussianBlur stdDeviation="2"/>
<feColorMatrix type="matrix" values="0 0 0 0 0 0 0 0 0 0 0 0 0 0 0 0 0 0 0.25 0"/>
<feBlend mode="normal" in2="BackgroundImageFix" result="effect1_dropShadow"/>
<feBlend mode="normal" in="SourceGraphic" in2="effect1_dropShadow" result="shape"/>
<feColorMatrix in="SourceAlpha" type="matrix" values="0 0 0 0 0 0 0 0 0 0 0 0 0 0 0 0 0 0 127 0" result="hardAlpha"/>
<feOffset dx="-1" dy="-1"/>
<feGaussianBlur stdDeviation="1"/>
<feComposite in2="hardAlpha" operator="arithmetic" k2="-1" k3="1"/>
<feColorMatrix type="matrix" values="0 0 0 0 0 0 0 0 0 0 0 0 0 0 0 0 0 0 0.25 0"/>
<feBlend mode="normal" in2="shape" result="effect2_innerShadow"/>
</filter>
</defs>
</svg>
