<svg width="345" height="229" viewBox="0 0 345 229" fill="none" xmlns="http://www.w3.org/2000/svg">
<rect x="22.1719" y="17.0194" width="300.089" height="195.311" rx="10" fill="#FFEDCC"/>
<path d="M35.874 62.0297C35.874 56.5069 40.3512 52.0297 45.874 52.0297H298.559C304.082 52.0297 308.559 56.5069 308.559 62.0297V166.156C308.559 171.679 304.082 176.156 298.559 176.156H45.874C40.3512 176.156 35.874 171.679 35.874 166.156V62.0297Z" fill="white"/>
<path fill-rule="evenodd" clip-rule="evenodd" d="M25 0C11.1929 0 0 11.1929 0 25V203.186C0 216.993 11.1929 228.186 25 228.186H319.431C333.238 228.186 344.431 216.993 344.431 203.186V25C344.431 11.1929 333.238 0 319.431 0H25ZM32.1714 22.5426C26.6485 22.5426 22.1714 27.0198 22.1714 32.5426V195.643C22.1714 201.166 26.6485 205.643 32.1714 205.643H312.26C317.783 205.643 322.26 201.166 322.26 195.643V32.5426C322.26 27.0198 317.783 22.5426 312.26 22.5426H32.1714Z" fill="#FFD699"/>
</svg>
